<?xml version="1.0" standalone="no"?>
<!DOCTYPE svg PUBLIC "-//W3C//DTD SVG 20010904//EN"
 "http://www.w3.org/TR/2001/REC-SVG-20010904/DTD/svg10.dtd">
<svg version="1.0" xmlns="http://www.w3.org/2000/svg"
 width="1280.000000pt" height="1280.000000pt" viewBox="0 0 1280.000000 1280.000000"
 preserveAspectRatio="xMidYMid meet">
<metadata>
Created by potrace 1.15, written by Peter Selinger 2001-2017
</metadata>
<g transform="translate(0.000000,1280.000000) scale(0.100000,-0.100000)"
fill="#000000" stroke="none">
<path d="M6749 12150 c-113 -13 -200 -36 -302 -79 -160 -68 -390 -158 -442
-173 -35 -10 -72 -13 -126 -8 -65 6 -90 14 -186 63 -83 42 -122 57 -153 57
-91 0 -346 -133 -389 -203 -32 -53 -59 -148 -77 -268 -13 -88 -18 -220 -21
-574 -5 -468 4 -706 31 -835 8 -38 59 -164 124 -306 61 -132 114 -252 117
-266 11 -42 -8 -64 -60 -71 -56 -8 -96 10 -176 78 -64 54 -118 72 -243 81
-158 11 -348 -27 -489 -97 l-58 -30 -242 123 c-266 136 -340 162 -567 197
-215 34 -329 44 -525 44 -240 0 -346 -16 -460 -73 -90 -45 -597 -433 -653
-499 -18 -22 -82 -111 -143 -197 l-110 -158 -162 -129 c-297 -237 -466 -395
-521 -489 -51 -87 -59 -123 -66 -313 l-8 -180 -49 -115 c-183 -425 -350 -1061
-429 -1630 -25 -180 -25 -497 -1 -609 52 -236 148 -481 346 -883 98 -198 105
-210 174 -275 40 -37 108 -95 152 -127 44 -33 82 -61 84 -62 2 -2 -1 -9 -7
-16 -6 -7 -16 -35 -23 -61 -18 -72 3 -116 104 -214 123 -120 227 -180 387
-225 61 -17 110 -21 270 -24 173 -3 571 -22 577 -28 1 -1 -190 -61 -425 -134
-235 -73 -780 -242 -1212 -376 l-785 -243 -3 -916 -2 -915 122 -41 c68 -22
483 -155 923 -296 440 -140 808 -260 818 -265 11 -7 23 -7 35 0 20 12 4905
1400 4926 1400 8 0 16 -6 19 -12 20 -58 12 88 -37 642 -32 353 -55 647 -53
654 3 7 70 52 149 101 179 110 514 334 808 541 225 157 863 613 924 659 l32
24 300 -367 c233 -284 341 -427 482 -634 100 -146 182 -270 182 -275 0 -16
216 -258 257 -288 23 -16 44 -35 46 -41 3 -5 -9 -41 -25 -80 -55 -127 -108
-275 -134 -372 -21 -82 -27 -131 -34 -312 -5 -137 -4 -222 2 -233 15 -29 121
-74 243 -103 61 -15 116 -28 123 -30 7 -2 12 -20 12 -44 0 -70 59 -105 260
-156 307 -77 527 -97 769 -69 172 19 198 17 406 -26 257 -53 393 -48 591 22
246 87 412 207 491 356 47 87 57 146 43 251 -21 162 -83 283 -169 329 -40 21
-57 23 -173 23 l-129 0 -18 43 c-30 68 -76 123 -123 146 -41 19 -61 21 -237
21 -151 0 -198 3 -221 15 -57 29 -517 407 -578 474 -42 46 -74 108 -114 219
-17 48 -35 92 -40 99 -5 6 -188 548 -407 1205 -219 656 -417 1234 -439 1285
-85 194 -155 264 -319 317 -29 10 -53 22 -53 26 0 21 256 264 390 371 80 64
160 133 178 153 38 43 42 84 12 127 -23 31 -19 49 19 83 15 14 21 31 21 60 0
23 20 104 46 181 54 167 94 326 94 375 0 32 37 82 346 465 191 237 357 444
371 462 l24 31 -18 66 c-14 56 -21 66 -42 71 -15 3 -217 36 -451 75 -402 66
-426 69 -441 52 -9 -9 -146 -168 -304 -352 -158 -184 -291 -336 -295 -338 -3
-1 -65 14 -136 33 -223 61 -367 87 -495 89 -110 1 -118 0 -175 -29 -51 -27
-67 -42 -121 -121 -80 -117 -114 -139 -342 -219 -253 -89 -342 -134 -615 -314
-257 -169 -374 -238 -514 -301 -110 -49 -368 -150 -385 -150 -6 0 -66 107
-132 238 l-120 237 -1 165 c-1 263 -33 364 -213 677 -109 190 -123 268 -69
401 45 109 90 174 193 277 106 106 213 185 251 185 15 0 51 -25 96 -66 211
-190 379 -238 439 -124 7 14 31 77 54 140 l40 115 49 24 c47 24 48 25 42 63
-10 62 1 82 65 124 62 41 79 69 79 130 l0 34 63 0 c53 0 71 5 110 30 26 16 52
42 58 57 13 33 6 283 -11 383 -9 52 -9 65 2 69 7 2 38 29 68 60 92 93 133 226
149 485 22 352 -27 542 -193 740 -74 89 -433 377 -625 501 -40 26 -116 68
-169 93 -106 50 -162 58 -303 42z m-1015 -561 l58 -41 -97 -94 c-72 -71 -104
-110 -125 -156 -33 -69 -29 -72 -65 44 l-18 57 38 86 c69 156 109 175 209 104z
m3718 -3667 l27 -7 -37 -43 c-37 -42 -37 -42 -74 -30 -30 9 -38 16 -38 35 0
14 -4 32 -9 42 -9 16 -5 17 47 13 31 -2 69 -7 84 -10z m-214 -280 c-7 -10
-137 -159 -288 -331 -151 -172 -275 -318 -275 -324 0 -6 149 -80 330 -164 257
-118 330 -156 330 -170 0 -12 -43 -45 -140 -105 -77 -49 -144 -88 -148 -88 -4
0 -13 14 -19 31 -51 147 -151 290 -232 331 -161 82 -481 -23 -1395 -456 -124
-59 -228 -103 -231 -99 -4 5 -12 22 -17 38 l-10 30 121 77 c341 215 511 369
925 840 56 64 117 127 136 138 19 12 61 25 95 31 109 17 208 56 345 133 l133
76 49 -19 c135 -53 202 -49 263 14 37 38 48 45 28 17z"/>
</g>
</svg>
